<svg width="13" height="7" viewBox="0 0 13 7" fill="none" xmlns="http://www.w3.org/2000/svg">
<path d="M11.496 0.278154C11.3855 0.277515 11.276 0.298691 11.1737 0.340466C11.0714 0.382242 10.9784 0.443795 10.9 0.521597L7.05525 4.37471C6.97721 4.45339 6.88437 4.51584 6.78207 4.55846C6.67977 4.60108 6.57005 4.62302 6.45923 4.62302C6.34842 4.62302 6.23869 4.60108 6.1364 4.55846C6.0341 4.51584 5.94126 4.45339 5.86322 4.37471L2.0185 0.521597C1.86043 0.363524 1.64603 0.274719 1.42248 0.274719C1.19893 0.274719 0.984541 0.363524 0.826468 0.521597C0.668394 0.67967 0.57959 0.894063 0.57959 1.11761C0.57959 1.2283 0.601392 1.33791 0.643752 1.44017C0.686111 1.54244 0.748198 1.63536 0.826468 1.71363L4.67958 5.55835C5.15802 6.01801 5.79576 6.27472 6.45923 6.27472C7.12271 6.27472 7.76044 6.01801 8.23889 5.55835L12.092 1.71363C12.1707 1.63559 12.2331 1.54274 12.2758 1.44045C12.3184 1.33815 12.3403 1.22843 12.3403 1.11761C12.3403 1.00679 12.3184 0.897072 12.2758 0.794776C12.2331 0.69248 12.1707 0.599635 12.092 0.521597C12.0136 0.443795 11.9205 0.382242 11.8183 0.340466C11.716 0.298691 11.6065 0.277515 11.496 0.278154Z" fill="black"/>
</svg>
