<svg width="13" height="7" viewBox="0 0 13 7" fill="none" xmlns="http://www.w3.org/2000/svg">
<path d="M11.496 6.27128C11.3855 6.27192 11.276 6.25075 11.1737 6.20897C11.0714 6.1672 10.9784 6.10564 10.9 6.02784L7.05525 2.17473C6.97721 2.09605 6.88437 2.0336 6.78207 1.99098C6.67977 1.94836 6.57005 1.92642 6.45923 1.92642C6.34842 1.92642 6.23869 1.94836 6.1364 1.99098C6.0341 2.0336 5.94126 2.09605 5.86322 2.17473L2.0185 6.02784C1.86043 6.18591 1.64603 6.27472 1.42248 6.27472C1.19893 6.27472 0.984541 6.18591 0.826468 6.02784C0.668394 5.86977 0.57959 5.65538 0.57959 5.43183C0.57959 5.32114 0.601392 5.21153 0.643752 5.10926C0.686111 5.007 0.748198 4.91408 0.826468 4.83581L4.67958 0.991091C5.15802 0.531431 5.79576 0.274719 6.45923 0.274719C7.12271 0.274719 7.76044 0.531431 8.23889 0.991091L12.092 4.83581C12.1707 4.91385 12.2331 5.00669 12.2758 5.10899C12.3184 5.21129 12.3403 5.32101 12.3403 5.43183C12.3403 5.54264 12.3184 5.65237 12.2758 5.75466C12.2331 5.85696 12.1707 5.9498 12.092 6.02784C12.0136 6.10564 11.9205 6.1672 11.8183 6.20897C11.716 6.25075 11.6065 6.27192 11.496 6.27128Z" fill="black"/>
</svg>
