<?xml version="1.0" encoding="utf-8"?>
<!-- Generator: Adobe Illustrator 26.5.0, SVG Export Plug-In . SVG Version: 6.00 Build 0)  -->
<svg version="1.1" id="Layer_1" xmlns="http://www.w3.org/2000/svg" xmlns:xlink="http://www.w3.org/1999/xlink" x="0px" y="0px"
	 viewBox="0 0 282.7 53" style="enable-background:new 0 0 282.7 53;" xml:space="preserve">
<style type="text/css">
	.st0{fill:#414042;}
	.st1{fill:#2B9B48;}
</style>
<g>
	<g>
		<path class="st0" d="M17.1,40l-2.9,11.9H0L14.9,0.5h18.2l15.3,51.2H33.6l-3.3-11.9L17.1,40L17.1,40z M28.4,29.8L26,20.5
			c-0.8-2.9-1.7-7.1-2.5-10.1h-0.2c-0.8,3-1.5,7.3-2.3,10.2l-2.2,9.1C18.8,29.7,28.4,29.7,28.4,29.8z"/>
		<path class="st0" d="M59.9,14.3l4,15.9c0.8,3,1.3,5.9,1.7,8.8h0.2c0.5-3,0.9-5.7,1.7-8.8l3.7-15.9h14.4L72.1,51.8H58.3L45.1,14.3
			H59.9z"/>
		<path class="st0" d="M97.3,37.9c0.5,3,4.8,4.6,9.6,4.6c3.6,0,6.9-0.4,10.3-1.4l1.7,9.1c-4.5,1.8-9.3,2.4-14,2.4
			c-13.1,0-20.6-7.2-20.6-19.1c0-8.7,5.6-19.9,19.4-19.9c12.1,0,17.2,8.9,17.2,19.1c0,2.3-0.3,4.3-0.5,5.2H97.3z M108.3,28.6
			c0-2.1-1-6.1-5.3-6.1c-4,0-5.6,3.7-5.8,6.1H108.3z"/>
		<path class="st0" d="M124.1,27.1c0-4.9-0.2-9.3-0.3-12.7h11.8l0.6,4.8h0.3c1.4-2,4.9-5.6,11.2-5.6c8.7,0,13.4,5.9,13.4,16.2v22
			h-13.7V31.4c0-4.3-1.5-6.8-4.8-6.8c-2.7,0-3.9,1.8-4.5,3.3c-0.3,0.7-0.4,1.7-0.4,2.7v21.2H124L124.1,27.1L124.1,27.1z"/>
		<path class="st0" d="M164.2,44l9.6-11.6c2.3-2.7,4-4.6,6.3-6.9v-0.2h-14.7V14.3h31.5v8.1l-9,10.9c-2.2,2.6-4.3,5.1-6.7,7.3v0.2
			h16.3v10.9h-33.4L164.2,44L164.2,44z"/>
		<path class="st0" d="M237.3,39c0,5.3,0.2,9.6,0.3,12.8h-11.8l-0.6-4.9H225c-1.4,2.1-4.6,5.8-11.3,5.8c-8.4,0-13.2-5.4-13.2-16.2
			v-22h13.7v19.8c0,4.8,1.6,7.4,4.8,7.4c2.6,0,3.9-1.7,4.4-3.2c0.3-0.5,0.4-1.2,0.4-2v-22h13.7V39H237.3z"/>
		<path class="st0" d="M242.9,27c0-5.9-0.2-9.5-0.3-12.6h11.7l0.5,6.8h0.3c2-5.7,6.8-7.6,10-7.6c1.2,0,1.7,0,2.7,0.2v12.8
			c-1-0.2-2.1-0.4-3.5-0.4c-4,0-6.8,1.7-7.4,4.7c-0.2,0.7-0.2,1.4-0.2,2.4v18.5H243L242.9,27L242.9,27z"/>
		<path class="st1" d="M264.6,44.7c0-4.7,3.3-8,7.8-8c4.6,0,7.7,3.2,7.8,8c0,4.6-3.2,8-7.8,8S264.6,49.2,264.6,44.7z"/>
	</g>
</g>
</svg>
